<svg id="artwork" xmlns="http://www.w3.org/2000/svg" viewBox="0 0 169.03 169.03"><defs><style>.cls-1{fill:#fff;}</style></defs><title>Collect</title><path class="cls-1" d="M142.23,45.92H102.85V73.15h39.38a4.8,4.8,0,0,0,4.8-4.8V50.72A4.8,4.8,0,0,0,142.23,45.92Z"/><path class="cls-1" d="M22,50.72V68.35a4.8,4.8,0,0,0,4.8,4.8H66.18V45.92H26.8A4.8,4.8,0,0,0,22,50.72Z"/><path class="cls-1" d="M135.56,80.1H102.85v71.75h32.71a4.8,4.8,0,0,0,4.8-4.8V84.9A4.8,4.8,0,0,0,135.56,80.1Z"/><path class="cls-1" d="M28.67,84.9V147a4.8,4.8,0,0,0,4.8,4.8H66.18V80.1H33.47A4.8,4.8,0,0,0,28.67,84.9Z"/><rect class="cls-1" x="71.67" y="80.1" width="25.7" height="71.74"/><rect class="cls-1" x="71.67" y="45.92" width="25.7" height="27.23"/><path class="cls-1" d="M116.12,20.68A13.32,13.32,0,0,0,98.2,14.86l-.4.22c0-.19,0-.39,0-.57a13.32,13.32,0,0,0-26.64,0c0,.19,0,.4,0,.61l-.41-.23A13.32,13.32,0,1,0,58.73,38.6c2.77,1.41,9,1.89,15.16,2H95.14c6.21-.08,12.39-.55,15.16-2A13.32,13.32,0,0,0,116.12,20.68ZM61.93,32.32a6.28,6.28,0,0,1-2.74-8.44h0a6.28,6.28,0,0,1,8.42-2.75c1.08.6,4.53,4,10.47,12.38C67.78,33.65,63,32.84,61.93,32.32Zm22.56-2.88c-4.78-9.13-6.21-13.72-6.25-15a6.28,6.28,0,0,1,6.28-6.25h0a6.28,6.28,0,0,1,6.27,6.28C90.74,15.73,89.3,20.33,84.49,29.44Zm22.61,2.88c-1.11.52-5.85,1.32-16.16,1.19,5.95-8.41,9.39-11.78,10.47-12.38a6.28,6.28,0,0,1,8.42,2.75h0A6.28,6.28,0,0,1,107.1,32.32Z"/></svg>