<svg id="artwork" xmlns="http://www.w3.org/2000/svg" viewBox="0 0 154 154"><defs><style>.cls-1{fill:#fff;}</style></defs><title>Earn</title><path class="cls-1" d="M147,79.06c-8.53-1-12.2-10.16-20.75-19.13,4.52-3.4,12.08-13.13,11.14-15.25-1-2.27-4.3-4.3-12.64-3A15.34,15.34,0,0,0,113.38,50c-8.64-4.72-20.67-8.1-38.46-8.1-23.81,0-39.41,9.69-48,21.59a27.1,27.1,0,0,1-4.82-3.25,12.85,12.85,0,0,1-4.23-6.09A8,8,0,0,1,17.53,52c0-7.66,5.41-6.91,5.41-3.75a5.7,5.7,0,0,1-2.11,3.87c.28,1.5,1.26,3.75,4.3,6.34,3.28-2.55,4.57-6.35,4.57-10.66a8.71,8.71,0,0,0-8.41-9.16c-1.65,0-10.81.15-10.81,13.21a19,19,0,0,0,.32,3.51C5.86,54.61,5.09,49,3.41,49S-.34,61.8,12.87,61.8h.45a24.44,24.44,0,0,0,9.54,8.36,40.16,40.16,0,0,0-4.3,17.5c0,8.73,3.83,18.92,11.5,27.44-3.13,6.77-8.79,21.52-.66,25.38,10.64,5.06,24.84,3.79,25.31-.25.36-3-1-6.38-1.23-10.22a67.91,67.91,0,0,0,20.94,3.15,78.42,78.42,0,0,0,14.29-1.3c.91,4.79,4,10.9,15.28,10.9,14.91,0,14.15-5.56,12.13-8.59-1.18-1.78-3-6.84-4.25-10.74,12.67-7.15,19.64-15.73,21.95-16.3,6.07-1.52,11.37,1.26,13.4-3.79s3.79-16.17,4.55-19.21S149.73,79.06,147,79.06Zm-31.56,4.14a7.33,7.33,0,1,1,7.33-7.33A7.32,7.32,0,0,1,115.39,83.19Z"/><path class="cls-1" d="M69.09,24.93c0,1.41.64,2.37,3.15,3.28V22.06C70,22.37,69.09,23.47,69.09,24.93Z"/><path class="cls-1" d="M72.24,35.16v-.11c-6.57-1.78-9.8-4.33-9.8-9.71,0-5.06,3.83-8.39,9.58-9V13.71h4.74v2.74a19.11,19.11,0,0,1,8.48,3.38l-3.06,5.33a18.85,18.85,0,0,0-5.66-2.69v6.89c5.14,1.39,8.1,3.33,9.28,6.33a77.57,77.57,0,0,1,15.32,3.46A28.32,28.32,0,1,0,47.6,40.23,78.07,78.07,0,0,1,72.24,35.16Z"/></svg>