<svg id="artwork" xmlns="http://www.w3.org/2000/svg" viewBox="0 0 144 144"><defs><style>.cls-1{fill:#fff;}</style></defs><title>Join</title><path class="cls-1" d="M93.24,114.94a27.68,27.68,0,0,1,15-24.59c-1.26-.47-2.58-.95-4-1.42-13.95-5.72-18.34-7.56-18.43-11.44A60.58,60.58,0,0,0,99.2,75.8c12.48-3.27,9.77-9.58,9.71-9.7a3.31,3.31,0,0,1-1.94.55,4.45,4.45,0,0,1-3.22-1.79,2.48,2.48,0,0,1-.3-.49c-1.91-3.5,2.58-12.45,2.58-23.48a54.89,54.89,0,0,0-1.69-14.14h0C100.5,12.35,90.77,6.22,81.71,3.9l-.07,0-1.12-.27-.09,0c-1.11-.24-2.2-.43-3.26-.57L77,3l-.77-.09-.48-.05-.66-.06-.58,0-.57,0-.67,0-.45,0-1,0H70.21l-1,0-.45,0-.67,0-.57,0-.58,0-.66.06-.48.05L65,3l-.15,0c-1.06.14-2.16.33-3.26.57l-.09,0-1.12.27-.07,0C51.23,6.22,41.5,12.35,37.68,26.75h0A54.89,54.89,0,0,0,36,40.89c0,11,4.49,20,2.58,23.48a2.48,2.48,0,0,1-.3.49A4.45,4.45,0,0,1,35,66.64a3.31,3.31,0,0,1-1.94-.55c-.05.12-2.77,6.43,9.71,9.7a60.58,60.58,0,0,0,13.44,1.69c-.1,3.89-4.49,5.72-18.43,11.44-19.14,6.46-24.1,12.76-25.33,17.7q-.08.34-.15.67c-.08.44-.14.87-.18,1.28-.13,1.45,0,2.75,0,3.86a11.66,11.66,0,0,0,.26,2.55,5.55,5.55,0,0,0,5.89,4.68H93.64A27.84,27.84,0,0,1,93.24,114.94Z"/><path class="cls-1" d="M120.93,92.58a22.36,22.36,0,1,0,22.36,22.36A22.36,22.36,0,0,0,120.93,92.58Zm13.3,23.4a3.39,3.39,0,0,1-3.39,3.39h-5.48v5.48a3.39,3.39,0,0,1-3.39,3.39h-2.08a3.39,3.39,0,0,1-3.39-3.39v-5.48H111a3.39,3.39,0,0,1-3.39-3.39V113.9a3.39,3.39,0,0,1,3.39-3.39h5.48V105a3.39,3.39,0,0,1,3.39-3.39H122a3.39,3.39,0,0,1,3.39,3.39v5.48h5.48a3.39,3.39,0,0,1,3.39,3.39Z"/></svg>