<svg id="artwork" xmlns="http://www.w3.org/2000/svg" viewBox="0 0 154 154"><defs><style>.cls-1{fill:#fff;}</style></defs><title>Shop</title><path class="cls-1" d="M130,29.88H24a5,5,0,0,0-5,5V136a5,5,0,0,0,5,5H130a5,5,0,0,0,5-5V34.9A5,5,0,0,0,130,29.88ZM106.47,85.47a4.33,4.33,0,0,1-4.31,4.31H56.6a20.85,20.85,0,0,0,35.14,10.43,4.25,4.25,0,0,1,6-.06l.12.12a4.23,4.23,0,0,1,0,6A29.47,29.47,0,0,1,47.53,85.47a4.33,4.33,0,0,1,4.31-4.31H97.4A20.85,20.85,0,0,0,62.26,70.73a4.25,4.25,0,0,1-6,.06l-.12-.12a4.23,4.23,0,0,1,0-6,29.47,29.47,0,0,1,50.37,20.78Z"/><path class="cls-1" d="M56.24,38.33a21.49,21.49,0,1,1,41.53,0h11.4a32.62,32.62,0,1,0-64.32,0Z"/></svg>